# xmcd
#
# Track frame offsets: 
#        150
#        13196
#        26166
#        39591
#        52784
#        70284
#        84614
#        102221
#        112996
#        122747
#        135777
#        149542
#        163886
#        177359
#        190500
#
# Disc length: 2723 seconds
#
# Revision: 1
# Processed by: cddbd v1.4PL0 Copyright (c) Steve Scherf et al.
# Submitted via: ExactAudioCopy v0.90b4
#
DISCID=c70aa10f
DTITLE=Julio Preciado - Que me siga la tambora
DYEAR=2003
DGENRE=Banda
TTITLE0=Lo vas a pagar
TTITLE1=La tumba será el final
TTITLE2=Nomás las mujeres quedan
TTITLE3=La estrella
TTITLE4=Indita mía
TTITLE5=Perdón, señora
TTITLE6=Albur perdido
TTITLE7=Ya se va tu rey
TTITLE8=Ni por mil puñados de oro
TTITLE9=Te reto a que me olvides
TTITLE10=Te vas ángel mío
TTITLE11=Mejor me voy
TTITLE12=Esa morena
TTITLE13=Nada escrito
TTITLE14=Si nos dejan [con Rocío Dúrcal]
EXTD=
EXTT0=
EXTT1=
EXTT2=
EXTT3=
EXTT4=
EXTT5=
EXTT6=
EXTT7=
EXTT8=
EXTT9=
EXTT10=
EXTT11=
EXTT12=
EXTT13=
EXTT14=
PLAYORDER=
